<svg xmlns="http://www.w3.org/2000/svg" width="600" height="600" viewBox="0 0 600 600" version="1.1"><path d="M 192.767 32.027 C 184.735 32.767, 180.521 33.264, 171 34.597 C 151.196 37.371, 129.798 43.687, 113.538 51.558 C 108.567 53.965, 103.607 56.511, 102.516 57.217 C 95.012 62.072, 91.338 64.543, 90.274 65.452 C 89.599 66.029, 87.383 67.850, 85.349 69.500 C 78.385 75.151, 67 87.079, 67 88.726 C 67 89.309, 66.325 90.045, 65.500 90.362 C 64.675 90.678, 64 91.626, 64 92.469 C 64 93.311, 63.550 94, 63 94 C 62.450 94, 62 94.675, 62 95.500 C 62 96.325, 61.550 97, 61 97 C 60.450 97, 60 97.675, 60 98.500 C 60 99.325, 59.559 100, 59.019 100 C 58.480 100, 57.756 101.125, 57.411 102.500 C 57.066 103.875, 56.447 105, 56.037 105 C 54.689 105, 46.820 123.156, 42.840 135.450 C 38.299 149.475, 34.397 169.505, 32.552 188.259 C 31.593 198.008, 31.217 226.951, 31.128 298 C 30.996 403.845, 31.333 412.615, 36.580 440 C 39.139 453.356, 44.246 471.053, 46.608 474.750 C 47.399 475.987, 47.830 477, 47.565 477 C 47.300 477, 48.435 480.037, 50.086 483.750 C 53.621 491.698, 62.050 506, 63.199 506 C 63.640 506, 64 506.580, 64 507.288 C 64 508.680, 79.589 526.997, 80.779 527.005 C 81.176 527.007, 83.214 528.583, 85.308 530.507 C 89.578 534.429, 101 542.406, 101 541.466 C 101 541.131, 101.788 541.647, 102.750 542.613 C 105.603 545.475, 123.649 553.520, 135.883 557.384 C 148.890 561.493, 167.280 565.232, 184 567.168 C 200.486 569.077, 400.491 569.096, 416.500 567.190 C 433.390 565.179, 452.200 561.244, 464.948 557.054 C 475.234 553.673, 492.056 546.295, 497.484 542.783 C 503.521 538.877, 508.620 535.488, 509.500 534.797 C 523.071 524.133, 531.008 515.586, 539.737 502.240 C 554.411 479.803, 563.753 449.295, 567.448 411.741 C 569.097 394.976, 569.538 211.637, 567.971 194 C 565.757 169.081, 562.554 151.785, 557.054 135.052 C 553.673 124.766, 546.295 107.944, 542.783 102.516 C 537.739 94.720, 535.457 91.348, 534.548 90.351 C 533.971 89.719, 532.166 87.469, 530.536 85.351 C 521.284 73.329, 502.330 58.770, 485.944 51.099 C 476.708 46.775, 457.505 40.145, 449.500 38.516 C 438.712 36.320, 424.790 34.009, 419.133 33.474 C 415.485 33.129, 411.375 32.573, 410 32.239 C 406.176 31.310, 202.717 31.112, 192.767 32.027 M 203.500 69.666 C 180.245 71.088, 157.972 74.950, 143.398 80.089 C 97.555 96.254, 75.555 130.891, 70.094 195.500 C 69.046 207.894, 69.343 403.975, 70.420 411 C 76.209 448.761, 80.263 462.261, 91.100 479.870 C 99.795 494, 116.653 508.636, 131.625 515.054 C 134.304 516.202, 137.847 517.759, 139.498 518.514 C 143.999 520.573, 162.607 525.733, 170 526.973 C 191.251 530.538, 202.015 530.826, 305 530.583 C 360.825 530.451, 408.300 530.042, 410.500 529.675 C 412.700 529.308, 416.525 528.760, 419 528.458 C 436.908 526.270, 458.321 520.370, 470.500 514.268 C 485.377 506.815, 499.029 494.925, 506.978 482.500 C 509.441 478.650, 511.716 475.275, 512.033 475 C 512.350 474.725, 514.499 469.913, 516.808 464.306 C 523.987 446.874, 527.697 429.740, 529.974 403.500 C 530.921 392.593, 530.725 195.069, 529.764 191 C 529.439 189.625, 528.880 185.800, 528.522 182.500 C 525.340 153.194, 515.182 125.644, 502 110.570 C 496.292 104.042, 485.724 94, 484.563 94 C 484.275 94, 481.540 92.401, 478.485 90.448 C 461.239 79.415, 434.446 72.354, 401 70.028 C 388.244 69.141, 217.219 68.827, 203.500 69.666 M 291.500 131.104 C 276.353 132.262, 268.256 135.226, 246 147.761 C 232.920 155.128, 229.324 157.126, 219.500 162.485 C 178.199 185.014, 169.162 190.713, 162.181 198.632 C 159.821 201.309, 157.240 204.213, 156.445 205.084 C 155.650 205.955, 155 207.193, 155 207.834 C 155 208.475, 154.550 209, 154 209 C 153.450 209, 153 209.675, 153 210.500 C 153 211.325, 152.558 212, 152.018 212 C 150.656 212, 141.494 231.194, 139.369 238.500 C 137.836 243.768, 137.576 250.663, 137.237 295 C 136.969 330.171, 137.203 347.723, 138.010 352.823 C 140.066 365.818, 145.150 378.345, 153.300 390.500 C 157.868 397.313, 170.175 409.753, 174.568 411.998 C 176.181 412.823, 177.725 413.754, 178 414.069 C 178.975 415.184, 198.278 425.495, 198.773 425.165 C 199.050 424.980, 199.552 425.229, 199.888 425.717 C 200.782 427.014, 208 431.279, 208 430.510 C 208 430.151, 208.598 430.455, 209.329 431.186 C 210.060 431.917, 222.998 439.356, 238.079 447.716 C 270.216 465.531, 276.391 467.802, 295.202 468.719 C 309.004 469.392, 319.109 468.016, 330.093 463.966 C 339.746 460.407, 422.367 414.416, 430.289 408.192 C 441.129 399.676, 452.560 383.406, 457.750 369.108 C 462.783 355.243, 463 352.338, 462.993 299.185 C 462.985 242.391, 462.801 240.755, 454.434 223.092 C 449.447 212.564, 444.344 205.302, 436.035 196.909 C 427.738 188.527, 424.552 186.493, 391.500 168.481 C 387.650 166.383, 382.700 163.662, 380.500 162.434 C 332.694 135.755, 330.967 134.921, 318.534 132.493 C 309.573 130.744, 301.584 130.333, 291.500 131.104 M 288 170.373 C 283.208 171.423, 276.286 174.739, 260.500 183.544 C 220.130 206.062, 195.766 219.892, 193.636 221.500 L 190.985 223.500 203.024 230.500 C 209.646 234.350, 215.837 237.952, 216.782 238.504 C 217.727 239.056, 222.027 241.531, 226.338 244.004 C 230.649 246.477, 234.924 248.952, 235.838 249.504 C 236.752 250.056, 240.875 252.433, 245 254.787 C 249.125 257.140, 253.175 259.494, 254 260.018 C 263.429 266.006, 299.484 286.037, 300.416 285.805 C 301.092 285.637, 325.780 271.550, 355.277 254.500 C 408.263 223.873, 408.882 223.479, 406.705 221.744 C 405.492 220.779, 393.025 213.607, 379 205.808 C 364.975 198.008, 353.275 191.349, 353 191.011 C 352.725 190.673, 350.700 189.565, 348.500 188.550 C 346.300 187.535, 344.275 186.433, 344 186.102 C 343.501 185.501, 331.403 179.018, 321 173.776 C 311.697 169.089, 299.566 167.838, 288 170.373 M 416.500 262.929 C 412.100 265.526, 406.147 268.968, 403.271 270.576 C 398.918 273.010, 348.719 302.009, 337 308.859 C 335.075 309.984, 330.238 312.758, 326.250 315.022 L 319 319.140 319 373.070 C 319 402.732, 319.224 427, 319.499 427 C 319.773 427, 339.236 416.271, 362.749 403.158 C 410.982 376.258, 411.426 375.935, 418.665 362.339 C 424.997 350.447, 425.048 349.933, 424.761 301.810 L 424.500 258.206 416.500 262.929 M 175.021 303.250 C 175.042 346.890, 175.074 347.590, 177.349 354 C 178.618 357.575, 180.971 362.587, 182.578 365.137 C 189.427 376.008, 191.793 377.673, 233.202 400.781 C 254.816 412.842, 274.413 423.684, 276.750 424.875 L 281 427.041 280.992 373.270 L 280.985 319.500 271.492 314.031 C 266.272 311.023, 262 308.183, 262 307.722 C 262 307.260, 261.661 307.092, 261.247 307.348 C 260.832 307.604, 258.020 306.308, 254.997 304.467 C 251.973 302.627, 247.102 299.857, 244.172 298.312 C 241.241 296.767, 238.074 294.827, 237.133 294.002 C 236.192 293.176, 234.936 292.407, 234.342 292.294 C 232.673 291.975, 213.543 280.676, 213.167 279.787 C 212.983 279.354, 212.360 279, 211.782 279 C 210.427 279, 187.607 265.821, 187.167 264.784 C 186.983 264.353, 186.259 264, 185.556 264 C 184.854 264, 182.621 262.875, 180.595 261.500 C 178.569 260.125, 176.481 259, 175.956 259 C 175.362 259, 175.008 275.773, 175.021 303.250" stroke="none" fill="#9494b4" fill-rule="evenodd"/></svg>